<?xml version="1.0" encoding="UTF-8"?>
<svg id="Layer_1" data-name="Layer 1" xmlns="http://www.w3.org/2000/svg" viewBox="0 0 250.03 235.52">
  <defs>
    <style>
      .cls-1 {
        fill: #0b57d0;
      }
    </style>
  </defs>
  <path class="cls-1" d="m250.03,234.61h-33.69l-97.33-32.37-22.81,33.18h-34.5l.76-2.89L217.52,1.38c.56-.75,2.94-1.38,3.69-1.38h27.6c.09,0,1.22,1.13,1.22,1.22v233.39Zm-31.66-71.44V54.39l-60.07,89.29,60.07,19.49Zm0,24.35l-73.49-23.61-1.05.21-11.52,18.12,86.06,28.02v-22.73Z"/>
  <path class="cls-1" d="m29.63,1.62c.29.01,1.25-.95,2.03-.49l99.37,33.01L152.62.81h35.72c-3.62,7.58-8.91,14.65-13.62,21.69C127.57,93.02,79.71,163.05,32.84,233.76c-1.53,2.36-2.94,1.66-4.84,1.66H0V1.62c9.85.27,19.78-.36,29.63,0Zm2.03,24.35v22.73l72.7,23.51c.98.08,1.4-.59,2.01-1.16,3.7-3.41,7.86-13.19,11.34-17.47L31.66,25.98Zm0,47.08v108.78l59.24-88.84-59.24-19.94Z"/>
</svg>